<?xml version="1.0" encoding="UTF-8" standalone="no"?>
<svg
   xmlns:dc="http://purl.org/dc/elements/1.1/"
   xmlns:cc="http://creativecommons.org/ns#"
   xmlns:rdf="http://www.w3.org/1999/02/22-rdf-syntax-ns#"
   xmlns:svg="http://www.w3.org/2000/svg"
   xmlns="http://www.w3.org/2000/svg"
   xmlns:sodipodi="http://sodipodi.sourceforge.net/DTD/sodipodi-0.dtd"
   xmlns:inkscape="http://www.inkscape.org/namespaces/inkscape"
   width="640px"
   height="480px"
   version="1.1"
   sodipodi:docname="hmm.svg"
   id="svg2"
   inkscape:version="0.48.4 r9939">
  <metadata
     id="metadata29">
    <rdf:RDF>
      <cc:Work
         rdf:about="">
        <dc:format>image/svg+xml</dc:format>
        <dc:type
           rdf:resource="http://purl.org/dc/dcmitype/StillImage" />
      </cc:Work>
    </rdf:RDF>
  </metadata>
  <defs
     id="defs3004" />
  <sodipodi:namedview
     id="base"
     pagecolor="#ffffff"
     bordercolor="#666666"
     borderopacity="1.0"
     showgrid="false"
     inkscape:zoom="2.2452925"
     inkscape:cx="274.98306"
     inkscape:cy="211.01522"
     inkscape:window-width="1918"
     inkscape:window-height="1059"
     inkscape:window-x="0"
     inkscape:window-y="19"
     inkscape:window-maximized="0"
     inkscape:current-layer="layer1" />
  <g
     id="layer1">
    <g
       id="g16342"
       transform="matrix(1.3630108,0,0,1.7383415,-83.386682,-260.29018)">
      <path
         transform="translate(-247.48737,329.51176)"
         d="m 446.89149,78.41539 c 0,2.928932 -27.54268,5.303301 -61.51829,5.303301 -33.97561,0 -61.51829,-2.374369 -61.51829,-5.303301 0,-2.928932 27.54268,-5.303301 61.51829,-5.303301 33.97561,0 61.51829,2.374369 61.51829,5.303301 z"
         sodipodi:ry="5.3033009"
         sodipodi:rx="61.518291"
         sodipodi:cy="78.41539"
         sodipodi:cx="385.3732"
         id="path16274"
         style="fill:#000000;fill-opacity:1;stroke:#000000;stroke-width:4.86199999;stroke-linecap:round;stroke-linejoin:miter;stroke-miterlimit:4;stroke-opacity:1;stroke-dasharray:none"
         sodipodi:type="arc" />
      <g
         transform="translate(236.17366,33.234019)"
         id="g16323">
        <path
           style="fill:#ffffff;fill-opacity:1;stroke:#000000;stroke-width:3.6422236;stroke-linecap:round;stroke-linejoin:round;stroke-miterlimit:4;stroke-opacity:1;stroke-dasharray:none"
           d="m -43.529684,288.80565 0,47.88844 c 0,20.00701 -16.10672,36.11373 -36.11372,36.11373 l -35.434036,0 c -20.007,0 -36.11372,-16.10672 -36.11372,-36.11373 l 0,-47.88844"
           id="path15514"
           sodipodi:nodetypes="cccccz" />
        <rect
           style="fill:#000000;fill-opacity:1;stroke:#000000;stroke-width:3.73380065;stroke-linecap:square;stroke-linejoin:round;stroke-miterlimit:4;stroke-opacity:1;stroke-dasharray:none"
           id="rect15516"
           width="25.094593"
           height="11.586656"
           x="-122.92343"
           y="308.61713"
           ry="0.78028601" />
        <rect
           style="fill:#000000;fill-opacity:1;stroke:#000000;stroke-width:3.73380065;stroke-linecap:square;stroke-linejoin:round;stroke-miterlimit:4;stroke-opacity:1;stroke-dasharray:none"
           id="rect15518"
           width="25.094593"
           height="11.586656"
           x="-83.093048"
           y="308.61713"
           ry="2.3408582" />
        <path
           style="fill:#000000;fill-opacity:1;stroke:#000000;stroke-width:0.47665545;stroke-linecap:square;stroke-linejoin:round;stroke-miterlimit:4;stroke-opacity:1;stroke-dasharray:none"
           id="path15520"
           d="m -148.88295,313.67171 c 0.5492,0.0105 1.09857,0.007 1.64783,0.004 0.36296,-0.002 0.72592,-0.004 1.08888,-0.004 0.2925,-4.3e-4 0.58499,-4e-4 0.87749,-4e-4 0.30402,-6.3e-4 0.60806,6e-4 0.9121,10e-4 0.39063,-0.01 0.77522,-3.7e-4 1.16196,0.0507 0.39964,0.0545 0.80309,0.0717 1.20622,0.0827 0.40521,-0.0158 0.80288,0.0589 1.204,0.099 0.40792,0.0368 0.81799,0.0407 1.2274,0.045 0.43014,0.002 0.8603,0.002 1.29044,6.5e-4 0.3736,-7.6e-4 0.74719,-10e-4 1.12079,-0.002 0.30704,-7.7e-4 0.61407,-9.8e-4 0.92111,-10e-4 0.29149,-8e-5 0.58298,-7e-5 0.87449,-6e-5 0.29154,1e-5 0.58307,1e-5 0.87461,1e-5 0.3187,-3.9e-4 0.63738,5.3e-4 0.95606,0.002 0.39427,0.002 0.78855,4.4e-4 1.18282,-6.3e-4 0.37089,-2.7e-4 0.74176,4.7e-4 1.11264,10e-4 0.39674,-1.7e-4 0.79345,-8e-5 1.19017,-10e-4 0.37997,1.9e-4 0.75994,7.4e-4 1.1399,1.6e-4 0.3456,-0.001 0.69117,-0.002 1.03674,2.5e-4 0.5332,0.003 1.06638,0.004 1.59958,0.006 0.72663,0.003 1.45327,0.003 2.17992,0.001 0.53322,-0.001 1.06645,-0.005 1.5997,-0.005 0.44129,6.5e-4 0.8826,-2e-5 1.3239,-0.002 0.0611,-2e-4 0.1222,-4e-4 0.18329,-6e-4 l -1.74597,1.1993 c -0.0605,-2.1e-4 -0.12103,-4.1e-4 -0.18152,-6.1e-4 -0.43986,-0.002 -0.8797,-0.002 -1.31956,-0.002 -0.52796,-2.2e-4 -1.0559,-0.004 -1.58387,-0.005 -0.72759,-0.002 -1.45522,-0.002 -2.18281,9.9e-4 -0.53911,0.002 -1.07818,0.003 -1.61727,0.006 -0.34582,0.002 -0.69165,0.002 -1.03746,2.6e-4 -0.38012,-5.7e-4 -0.76024,-3e-5 -1.14037,1.5e-4 -0.39568,-9.9e-4 -0.79136,-8.9e-4 -1.18705,-0.001 -0.37234,0.001 -0.74469,0.002 -1.11703,0.002 -0.39366,-10e-4 -0.78734,-0.003 -1.18099,-6.3e-4 -0.32056,0.001 -0.64113,0.002 -0.96171,0.002 -0.29154,0 -0.5831,0 -0.87466,0 -0.29142,0 -0.58286,2e-5 -0.87428,-6e-5 -0.306,-1.3e-4 -0.61201,-3.5e-4 -0.91799,-9.6e-4 -0.37203,-6.9e-4 -0.74405,-8.4e-4 -1.11607,-8.8e-4 -0.43016,-8.3e-4 -0.86031,7e-4 -1.29045,-0.004 -0.41476,-0.006 -0.83025,-0.0145 -1.24275,-0.0595 -0.39678,-0.0446 -0.79204,-0.0972 -1.19305,-0.0869 -0.4078,-0.0152 -0.81487,-0.0435 -1.21927,-0.0968 -0.38203,-0.0404 -0.76536,-0.0292 -1.14929,-0.0278 -0.30515,5.6e-4 -0.6103,0.002 -0.91546,0.001 -0.29211,10e-6 -0.5842,3e-5 -0.87631,-4e-4 -0.35885,-6.7e-4 -0.71769,-0.002 -1.07654,-0.004 -0.55322,-0.003 -1.10654,-0.006 -1.65969,0.004 l 1.74938,-1.20163 z" />
        <path
           style="fill:#000000;fill-opacity:1;stroke:#000000;stroke-width:0.47665545;stroke-linecap:square;stroke-linejoin:round;stroke-miterlimit:4;stroke-opacity:1;stroke-dasharray:none"
           id="path15522"
           d="m -57.388134,313.94838 c 0.70387,0.0118 1.40792,0.0102 2.11186,0.01 0.64523,-8.9e-4 1.29046,-0.003 1.93568,-0.006 0.43117,-0.002 0.86237,-0.002 1.29355,-0.003 0.33978,-8.1e-4 0.67959,-0.002 1.01937,-0.002 0.29682,0.0217 0.58206,-0.0575 0.87382,-0.0956 0.2926,-0.0341 0.58765,-0.039 0.88206,-0.0425 0.29216,-0.002 0.58432,-10e-4 0.87648,-8.4e-4 0.2918,4e-4 0.58358,5.3e-4 0.87537,6.1e-4 0.29179,5e-5 0.58358,5e-5 0.87537,5e-5 0.2918,0 0.58359,0 0.87538,0 0.31329,-6.1e-4 0.62656,10e-4 0.93983,10e-4 0.31724,-2.5e-4 0.63448,-6.9e-4 0.95173,-9.3e-4 0.29383,-1.8e-4 0.58766,-2e-4 0.88147,-2.1e-4 0.19433,-1e-5 0.09717,-1e-5 0.29148,-1e-5 l -1.75092,1.20269 c -0.19429,0 -0.09714,0 -0.29145,0 -0.29361,-2e-5 -0.58723,-4e-5 -0.88083,-2.2e-4 -0.31636,-2.3e-4 -0.63271,-6.8e-4 -0.94907,-9.3e-4 -0.31438,4e-5 -0.62874,0.002 -0.94311,10e-4 -0.29179,1e-5 -0.5836,1e-5 -0.8754,1e-5 -0.2918,-1e-5 -0.58362,-1e-5 -0.87541,-1.2e-4 -0.29182,-1.3e-4 -0.58365,-3.7e-4 -0.87546,-7.2e-4 -0.29128,-2.3e-4 -0.5826,-10e-4 -0.87384,0.004 -0.28933,0.007 -0.57911,0.0195 -0.86529,0.0636 -0.29606,0.0453 -0.59054,0.0907 -0.89209,0.0705 -0.33774,-4.3e-4 -0.67547,-10e-4 -1.01321,-0.002 -0.42826,-5.4e-4 -0.85651,-6.3e-4 -1.28476,-0.003 -0.63982,-0.003 -1.27963,-0.005 -1.91946,-0.006 -0.71339,-4.8e-4 -1.42687,-0.002 -2.14017,0.01 l 1.74702,-1.20002 z" />
        <path
           style="fill:#000000;fill-opacity:1;stroke:#000000;stroke-width:0.47665545;stroke-linecap:square;stroke-linejoin:round;stroke-miterlimit:4;stroke-opacity:1;stroke-dasharray:none"
           id="path15524"
           d="m -97.680974,314.1116 c 0.53391,0.0676 1.07258,0.0889 1.61048,0.10485 0.48007,0.0116 0.96035,0.0116 1.44053,0.0103 0.39642,-5e-4 0.79285,-6.3e-4 1.18927,-0.002 0.79576,0.0205 1.592,0.0104 2.38794,0.007 0.48094,-0.004 0.96187,-0.005 1.44281,-0.007 0.38352,3e-5 0.76704,-4.2e-4 1.15058,6e-4 0.40319,0.001 0.80639,-9.5e-4 1.20958,-3.1e-4 0.36382,-8.6e-4 0.72765,-7.6e-4 1.09145,-6.6e-4 0.36438,5.6e-4 0.72875,2.2e-4 1.09314,-5.1e-4 0.34805,0.001 0.69611,1.1e-4 1.04417,-4.5e-4 0.34055,0.001 0.68112,4.5e-4 1.02166,-4e-5 0.30081,-4.3e-4 0.60162,-5.6e-4 0.90243,-6.3e-4 0.25159,0.0585 0.50465,0.10057 0.76277,0.12091 0.2799,0.0172 0.56056,0.0173 0.84091,0.018 0.29168,1.9e-4 0.58334,-3.9e-4 0.87502,-6.8e-4 0.14602,-1.4e-4 0.29204,-2e-4 0.43806,-2.6e-4 l -1.75083,1.20274 c -0.14598,10e-5 -0.29197,1.9e-4 -0.43797,3.5e-4 -0.292,3.2e-4 -0.58403,0.001 -0.87605,-3.9e-4 -0.28518,-0.002 -0.57095,-0.005 -0.85489,-0.0331 -0.25058,-0.0294 -0.49596,-0.0897 -0.74782,-0.10496 -0.3002,-8e-5 -0.6004,-2e-4 -0.90058,-6.3e-4 -0.34051,-4.8e-4 -0.68102,-0.001 -1.02153,-5e-5 -0.34764,-5.5e-4 -0.69527,-0.002 -1.04291,-4.4e-4 -0.36388,-7.3e-4 -0.72775,-10e-4 -1.09163,-5.1e-4 -0.36317,1.1e-4 -0.72635,1.9e-4 -1.08954,-6.6e-4 -0.40287,6.4e-4 -0.80577,-0.002 -1.20866,-3.1e-4 -0.38412,0.001 -0.76824,5.8e-4 -1.15234,6e-4 -0.47415,-0.002 -0.94831,-0.003 -1.42245,-0.007 -0.80273,-0.004 -1.60575,-0.0132 -2.40833,0.007 -0.39576,-4.3e-4 -0.79151,4.6e-4 -1.18726,-3.6e-4 -0.4785,-0.003 -0.95702,-0.007 -1.43526,-0.0226 -0.54768,-0.0212 -1.09471,-0.0538 -1.64003,-0.10698 l 1.76728,-1.18246 z" />
        <path
           style="fill:none;stroke:#000000;stroke-width:4.80463552;stroke-linecap:round;stroke-linejoin:miter;stroke-miterlimit:4;stroke-opacity:1;stroke-dasharray:none"
           d="m -136.18547,276.2983 0,18.54323"
           id="path15526" />
        <path
           style="fill:none;stroke:#000000;stroke-width:4.80463552;stroke-linecap:round;stroke-linejoin:miter;stroke-miterlimit:4;stroke-opacity:1;stroke-dasharray:none"
           d="m -126.66145,274.54397 0,18.54322"
           id="path15528" />
        <path
           style="fill:none;stroke:#000000;stroke-width:4.80463552;stroke-linecap:round;stroke-linejoin:miter;stroke-miterlimit:4;stroke-opacity:1;stroke-dasharray:none"
           d="m -117.72453,276.00827 0,18.54323"
           id="path15530" />
        <path
           style="fill:none;stroke:#000000;stroke-width:4.80463552;stroke-linecap:round;stroke-linejoin:miter;stroke-miterlimit:4;stroke-opacity:1;stroke-dasharray:none"
           d="m -106.04779,274.84104 0,18.54323"
           id="path15532" />
        <path
           style="fill:none;stroke:#000000;stroke-width:4.80463552;stroke-linecap:round;stroke-linejoin:miter;stroke-miterlimit:4;stroke-opacity:1;stroke-dasharray:none"
           d="m -95.889164,277.02763 0,18.54323"
           id="path15534" />
        <path
           style="fill:none;stroke:#000000;stroke-width:4.80463552;stroke-linecap:round;stroke-linejoin:miter;stroke-miterlimit:4;stroke-opacity:1;stroke-dasharray:none"
           d="m -84.259894,276.85224 0,18.54324"
           id="path15536" />
        <path
           style="fill:none;stroke:#000000;stroke-width:4.80463552;stroke-linecap:round;stroke-linejoin:miter;stroke-miterlimit:4;stroke-opacity:1;stroke-dasharray:none"
           d="m -73.757354,275.13806 0,18.54324"
           id="path15538" />
        <path
           style="fill:none;stroke:#000000;stroke-width:4.80463552;stroke-linecap:round;stroke-linejoin:miter;stroke-miterlimit:4;stroke-opacity:1;stroke-dasharray:none"
           d="m -63.841934,278.17497 0,18.54324"
           id="path15540" />
        <path
           style="fill:none;stroke:#000000;stroke-width:4.80463552;stroke-linecap:round;stroke-linejoin:miter;stroke-miterlimit:4;stroke-opacity:1;stroke-dasharray:none"
           d="m -53.168954,277.80629 0,18.54323"
           id="path15542" />
        <path
           style="fill:none;stroke:#000000;stroke-width:0.77494121px;stroke-linecap:butt;stroke-linejoin:miter;stroke-opacity:1"
           d="m -105.80173,352.88075 27.122936,-4.42823"
           id="path15544" />
        <path
           style="fill:none;stroke:#000000;stroke-width:4.80463552;stroke-linecap:round;stroke-linejoin:miter;stroke-miterlimit:4;stroke-opacity:1;stroke-dasharray:none"
           d="m -144.06966,281.02852 0,18.54322"
           id="path15546" />
      </g>
    </g>
    <rect
       style="fill:none;stroke:#000000;stroke-width:4.19970894;stroke-linecap:butt;stroke-linejoin:round;stroke-miterlimit:4;stroke-opacity:1;stroke-dasharray:none"
       id="rect3085"
       width="404.03027"
       height="104.03029"
       x="230.80775"
       y="93.120049"
       ry="4.8779454" />
    <path
       style="fill:none;stroke:#000000;stroke-width:5;stroke-linecap:butt;stroke-linejoin:miter;stroke-opacity:1;stroke-miterlimit:4;stroke-dasharray:none"
       d="m 191.03546,273.47518 50.34043,-55.50355"
       id="path3870" />
  </g>
</svg>
