<?xml version="1.0" encoding="UTF-8" standalone="no"?>
<!-- Created with Inkscape (http://www.inkscape.org/) -->

<svg
   xmlns:dc="http://purl.org/dc/elements/1.1/"
   xmlns:cc="http://creativecommons.org/ns#"
   xmlns:rdf="http://www.w3.org/1999/02/22-rdf-syntax-ns#"
   xmlns:svg="http://www.w3.org/2000/svg"
   xmlns="http://www.w3.org/2000/svg"
   xmlns:sodipodi="http://sodipodi.sourceforge.net/DTD/sodipodi-0.dtd"
   xmlns:inkscape="http://www.inkscape.org/namespaces/inkscape"
   width="640px"
   height="480px"
   id="svg3847"
   version="1.1"
   inkscape:version="0.48.4 r9939"
   sodipodi:docname="rage.svg">
  <defs
     id="defs3849" />
  <sodipodi:namedview
     id="base"
     pagecolor="#ffffff"
     bordercolor="#666666"
     borderopacity="1.0"
     inkscape:pageopacity="0.0"
     inkscape:pageshadow="2"
     inkscape:zoom="0.77472527"
     inkscape:cx="320"
     inkscape:cy="240"
     inkscape:current-layer="layer1"
     inkscape:document-units="px"
     showgrid="false"
     inkscape:window-width="681"
     inkscape:window-height="747"
     inkscape:window-x="683"
     inkscape:window-y="19"
     inkscape:window-maximized="0" />
  <metadata
     id="metadata3852">
    <rdf:RDF>
      <cc:Work
         rdf:about="">
        <dc:format>image/svg+xml</dc:format>
        <dc:type
           rdf:resource="http://purl.org/dc/dcmitype/StillImage" />
        <dc:title />
      </cc:Work>
    </rdf:RDF>
  </metadata>
  <g
     id="layer1"
     inkscape:label="Layer 1"
     inkscape:groupmode="layer">
    <path
       d="m 332.57562,309.04813 c 0,4.57295 -43.00297,8.28016 -96.04976,8.28016 -53.04678,0 -96.04975,-3.70721 -96.04975,-8.28016 0,-4.57295 43.00297,-8.28014 96.04975,-8.28014 53.04679,0 96.04976,3.70719 96.04976,8.28014 z"
       id="path610"
       inkscape:connector-curvature="0"
       style="stroke:#000000;stroke-width:7.59113836;stroke-linecap:round" />
    <g
       transform="matrix(1.5613201,0,0,1.5613201,388.42007,-277.52754)"
       id="g612">
      <path
         d="m -43.5297,288.8057 0,47.8884 c 0,20.007 -16.1067,36.1137 -36.1137,36.1137 l -35.434,0 c -20.007,0 -36.1137,-16.1067 -36.1137,-36.1137 l 0,-47.8884"
         id="path614"
         inkscape:connector-curvature="0"
         style="fill:#ffffff;stroke:#000000;stroke-width:3.64219999;stroke-linecap:round;stroke-linejoin:round" />
      <path
         d="m -122.1431,308.6171 h 23.534 a 0.7803,0.7803 0 0 1 0.7803,0.7803 v 10.0261 a 0.7803,0.7803 0 0 1 -0.7803,0.7803 h -23.534 a 0.7803,0.7803 0 0 1 -0.7803,-0.7803 v -10.0261 a 0.7803,0.7803 0 0 1 0.7803,-0.7803 z"
         id="path616"
         inkscape:connector-curvature="0"
         style="stroke:#000000;stroke-width:3.73379993;stroke-linecap:square;stroke-linejoin:round" />
      <path
         d="m -80.7522,308.6171 h 20.4129 a 2.3409,2.3409 0 0 1 2.3408,2.3409 v 6.9049 a 2.3409,2.3409 0 0 1 -2.3408,2.3409 h -20.4129 a 2.3409,2.3409 0 0 1 -2.3408,-2.3409 v -6.9049 a 2.3409,2.3409 0 0 1 2.3408,-2.3409 z"
         id="path618"
         inkscape:connector-curvature="0"
         style="stroke:#000000;stroke-width:3.73379993;stroke-linecap:square;stroke-linejoin:round" />
      <path
         d="m -148.8829,313.6717 c 0.5492,0.0105 1.0986,0.007 1.6478,0.004 0.363,-0.002 0.7259,-0.004 1.0889,-0.004 0.2925,-4.3e-4 0.585,-4e-4 0.8775,-4e-4 0.304,-6.3e-4 0.6081,6e-4 0.9121,0.001 0.3906,-0.01 0.7752,-3.7e-4 1.162,0.0507 0.3996,0.0545 0.8031,0.0717 1.2062,0.0827 0.4052,-0.0158 0.8029,0.0589 1.204,0.099 0.4079,0.0368 0.818,0.0407 1.2274,0.045 0.4301,0.002 0.8603,0.002 1.2904,6.5e-4 0.3736,-7.6e-4 0.7472,-0.001 1.1208,-0.002 0.307,-7.7e-4 0.6141,-9.8e-4 0.9211,-0.001 0.2915,-8e-5 0.583,-7e-5 0.8745,-6e-5 0.2915,10e-6 0.5831,10e-6 0.8746,10e-6 0.3187,-3.9e-4 0.6374,5.3e-4 0.9561,0.002 0.3943,0.002 0.7885,4.4e-4 1.1828,-6.3e-4 0.3709,-2.7e-4 0.7418,4.7e-4 1.1126,0.001 0.3967,-1.7e-4 0.7934,-8e-5 1.1902,-0.001 0.38,1.9e-4 0.7599,7.4e-4 1.1399,1.6e-4 0.3456,-10e-4 0.6912,-0.002 1.0367,2.5e-4 0.5332,0.003 1.0664,0.004 1.5996,0.006 0.7266,0.003 1.4533,0.003 2.1799,10e-4 0.5332,-10e-4 1.0664,-0.005 1.5997,-0.005 0.4413,6.5e-4 0.8826,-2e-5 1.3239,-0.002 0.0611,-2e-4 0.1222,-4e-4 0.1833,-6e-4 l -1.746,1.1993 c -0.0605,-2.1e-4 -0.121,-4.1e-4 -0.1815,-6.1e-4 -0.4399,-0.002 -0.8797,-0.002 -1.3196,-0.002 -0.528,-2.2e-4 -1.0559,-0.004 -1.5839,-0.005 -0.7276,-0.002 -1.4552,-0.002 -2.1828,9.9e-4 -0.5391,0.002 -1.0782,0.003 -1.6173,0.006 -0.3458,0.002 -0.6916,0.002 -1.0375,2.6e-4 -0.3801,-5.7e-4 -0.7602,-3e-5 -1.1404,1.5e-4 -0.3957,-9.9e-4 -0.7914,-8.9e-4 -1.187,-10e-4 -0.3723,10e-4 -0.7447,0.002 -1.117,0.002 -0.3937,-0.001 -0.7873,-0.003 -1.181,-6.3e-4 -0.3206,10e-4 -0.6411,0.002 -0.9617,0.002 -0.2915,0 -0.5831,0 -0.8747,0 -0.2914,0 -0.5829,2e-5 -0.8743,-6e-5 -0.306,-1.3e-4 -0.612,-3.5e-4 -0.918,-9.6e-4 -0.372,-6.9e-4 -0.744,-8.4e-4 -1.1161,-8.8e-4 -0.4302,-8.3e-4 -0.8603,7e-4 -1.2904,-0.004 -0.4148,-0.006 -0.8303,-0.0145 -1.2428,-0.0595 -0.3968,-0.0446 -0.792,-0.0972 -1.193,-0.0869 -0.4078,-0.0152 -0.8149,-0.0435 -1.2193,-0.0968 -0.382,-0.0404 -0.7654,-0.0292 -1.1493,-0.0278 -0.3051,5.6e-4 -0.6103,0.002 -0.9155,10e-4 -0.2921,1e-5 -0.5842,3e-5 -0.8763,-4e-4 -0.3589,-6.7e-4 -0.7177,-0.002 -1.0765,-0.004 -0.5532,-0.003 -1.1065,-0.006 -1.6597,0.004 l 1.7494,-1.2016 z"
         id="path620"
         inkscape:connector-curvature="0"
         style="stroke:#000000;stroke-width:0.47670001;stroke-linecap:square;stroke-linejoin:round" />
      <path
         d="m -57.3881,313.9484 c 0.7039,0.0118 1.4079,0.0102 2.1119,0.01 0.6452,-8.9e-4 1.2905,-0.003 1.9357,-0.006 0.4312,-0.002 0.8624,-0.002 1.2935,-0.003 0.3398,-8.1e-4 0.6796,-0.002 1.0194,-0.002 0.2968,0.0217 0.5821,-0.0575 0.8738,-0.0956 0.2926,-0.0341 0.5877,-0.039 0.8821,-0.0425 0.2922,-0.002 0.5843,-0.001 0.8765,-8.4e-4 0.2918,4e-4 0.5836,5.3e-4 0.8754,6.1e-4 0.2918,5e-5 0.5836,5e-5 0.8754,5e-5 0.2918,0 0.5836,0 0.8754,0 0.3133,-6.1e-4 0.6266,10e-4 0.9398,10e-4 0.3172,-2.5e-4 0.6345,-6.9e-4 0.9517,-9.3e-4 0.2938,-1.8e-4 0.5877,-2e-4 0.8815,-2.1e-4 0.1943,-1e-5 0.0972,-1e-5 0.2915,-1e-5 l -1.7509,1.2027 c -0.1943,0 -0.0971,0 -0.2914,0 -0.2936,-2e-5 -0.5872,-4e-5 -0.8808,-2.2e-4 -0.3164,-2.3e-4 -0.6327,-6.8e-4 -0.9491,-9.3e-4 -0.3144,4e-5 -0.6287,0.002 -0.9431,0.001 -0.2918,10e-6 -0.5836,10e-6 -0.8754,10e-6 -0.2918,-10e-6 -0.5836,-10e-6 -0.8754,-1.2e-4 -0.2918,-1.3e-4 -0.5837,-3.7e-4 -0.8755,-7.2e-4 -0.2913,-2.3e-4 -0.5826,-0.001 -0.8738,0.004 -0.2893,0.007 -0.5791,0.0195 -0.8653,0.0636 -0.2961,0.0453 -0.5905,0.0907 -0.8921,0.0705 -0.3377,-4.3e-4 -0.6755,-0.001 -1.0132,-0.002 -0.4283,-5.4e-4 -0.8565,-6.3e-4 -1.2848,-0.003 -0.6398,-0.003 -1.2796,-0.005 -1.9195,-0.006 -0.7134,-4.8e-4 -1.4269,-0.002 -2.1402,0.01 l 1.747,-1.2 z"
         id="path622"
         inkscape:connector-curvature="0"
         style="stroke:#000000;stroke-width:0.47670001;stroke-linecap:square;stroke-linejoin:round" />
      <path
         d="m -97.681,314.1116 c 0.5339,0.0676 1.0726,0.0889 1.6105,0.1048 0.4801,0.0116 0.9604,0.0116 1.4405,0.0103 0.3964,-5e-4 0.7929,-6.3e-4 1.1893,-0.002 0.7958,0.0205 1.592,0.0104 2.3879,0.007 0.4809,-0.004 0.9619,-0.005 1.4428,-0.007 0.3835,3e-5 0.767,-4.2e-4 1.1506,6e-4 0.4032,10e-4 0.8064,-9.5e-4 1.2096,-3.1e-4 0.3638,-8.6e-4 0.7277,-7.6e-4 1.0915,-6.6e-4 0.3644,5.6e-4 0.7288,2.2e-4 1.0931,-5.1e-4 0.3481,0.001 0.6961,1.1e-4 1.0442,-4.5e-4 0.3406,0.001 0.6811,4.5e-4 1.0217,-4e-5 0.3008,-4.3e-4 0.6016,-5.6e-4 0.9024,-6.3e-4 0.2516,0.0585 0.5047,0.1006 0.7628,0.1209 0.2799,0.0172 0.5606,0.0173 0.8409,0.018 0.2917,1.9e-4 0.5833,-3.9e-4 0.875,-6.8e-4 0.146,-1.4e-4 0.292,-2e-4 0.4381,-2.6e-4 l -1.7508,1.2027 c -0.146,1e-4 -0.292,1.9e-4 -0.438,3.5e-4 -0.292,3.2e-4 -0.584,10e-4 -0.876,-3.9e-4 -0.2852,-0.002 -0.5709,-0.005 -0.8549,-0.0331 -0.2506,-0.0294 -0.496,-0.0897 -0.7478,-0.105 -0.3002,-8e-5 -0.6004,-2e-4 -0.9006,-6.3e-4 -0.3405,-4.8e-4 -0.681,-0.001 -1.0215,-5e-5 -0.3476,-5.5e-4 -0.6953,-0.002 -1.0429,-4.4e-4 -0.3639,-7.3e-4 -0.7278,-0.001 -1.0916,-5.1e-4 -0.3632,1.1e-4 -0.7264,1.9e-4 -1.0895,-6.6e-4 -0.4029,6.4e-4 -0.8058,-0.002 -1.2087,-3.1e-4 -0.3841,0.001 -0.7682,5.8e-4 -1.1523,6e-4 -0.4742,-0.002 -0.9483,-0.003 -1.4224,-0.007 -0.8027,-0.004 -1.6058,-0.0132 -2.4083,0.007 -0.3958,-4.3e-4 -0.7915,4.6e-4 -1.1873,-3.6e-4 -0.4785,-0.003 -0.957,-0.007 -1.4353,-0.0226 -0.5477,-0.0212 -1.0947,-0.0538 -1.64,-0.107 l 1.7673,-1.1825 z"
         id="path624"
         inkscape:connector-curvature="0"
         style="stroke:#000000;stroke-width:0.47670001;stroke-linecap:square;stroke-linejoin:round" />
      <path
         d="m -136.1855,276.2983 0,18.5432"
         id="path626"
         inkscape:connector-curvature="0"
         style="fill:none;stroke:#000000;stroke-width:4.80459976;stroke-linecap:round" />
      <path
         d="m -126.6615,274.544 0,18.5432"
         id="path628"
         inkscape:connector-curvature="0"
         style="fill:none;stroke:#000000;stroke-width:4.80459976;stroke-linecap:round" />
      <path
         d="m -117.7245,276.0083 0,18.5432"
         id="path630"
         inkscape:connector-curvature="0"
         style="fill:none;stroke:#000000;stroke-width:4.80459976;stroke-linecap:round" />
      <path
         d="m -106.0478,274.841 0,18.5432"
         id="path632"
         inkscape:connector-curvature="0"
         style="fill:none;stroke:#000000;stroke-width:4.80459976;stroke-linecap:round" />
      <path
         d="m -95.8892,277.0276 0,18.5432"
         id="path634"
         inkscape:connector-curvature="0"
         style="fill:none;stroke:#000000;stroke-width:4.80459976;stroke-linecap:round" />
      <path
         d="m -84.2599,276.8522 0,18.5432"
         id="path636"
         inkscape:connector-curvature="0"
         style="fill:none;stroke:#000000;stroke-width:4.80459976;stroke-linecap:round" />
      <path
         d="m -73.7574,275.1381 0,18.5432"
         id="path638"
         inkscape:connector-curvature="0"
         style="fill:none;stroke:#000000;stroke-width:4.80459976;stroke-linecap:round" />
      <path
         d="m -63.8419,278.175 0,18.5432"
         id="path640"
         inkscape:connector-curvature="0"
         style="fill:none;stroke:#000000;stroke-width:4.80459976;stroke-linecap:round" />
      <path
         d="m -53.169,277.8063 0,18.5432"
         id="path642"
         inkscape:connector-curvature="0"
         style="fill:none;stroke:#000000;stroke-width:4.80459976;stroke-linecap:round" />
      <path
         d="m -105.8017,352.8807 27.1229,-4.4282"
         id="path644"
         inkscape:connector-curvature="0"
         style="fill:none;stroke:#000000;stroke-width:0.77490002" />
      <path
         d="m -144.0697,281.0285 0,18.5432"
         id="path646"
         inkscape:connector-curvature="0"
         style="fill:none;stroke:#000000;stroke-width:4.80459976;stroke-linecap:round" />
    </g>
    <path
       d="m 192.08883,326.01422 h 229.36543 a 32.671549,9.3070668 15.900479 0 1 44.43672,12.65856 l 34.39548,21.32701 a 32.671549,9.3070668 15.900479 0 1 -3.60611,12.65856 H 267.31493 a 32.671549,9.3070668 15.900479 0 1 -44.4367,-12.65856 l -34.3955,-21.32701 a 32.671549,9.3070668 15.900479 0 1 3.6061,-12.65856 z"
       id="path648"
       inkscape:connector-curvature="0"
       style="stroke:#000000;stroke-width:2.62524366;stroke-linecap:round;stroke-linejoin:round" />
    <path
       d="m 371.34914,158.63088 a 22.087258,22.087258 0 0 1 -44.17451,0 22.087258,22.087258 0 1 1 44.17451,0 z"
       id="path650"
       inkscape:connector-curvature="0"
       style="fill:#ffffff;fill-rule:evenodd;stroke:#000000;stroke-width:4.11916065" />
    <path
       d="m 227.59908,150.69206 a 22.087252,22.087252 0 0 1 -44.1745,0 22.087252,22.087252 0 1 1 44.1745,0 z"
       id="path652"
       inkscape:connector-curvature="0"
       style="fill:#ffffff;fill-rule:evenodd;stroke:#000000;stroke-width:4.11916065" />
    <g
       transform="matrix(1.5890831,0.1148829,-0.57591801,2.6277456,-280.71038,-2316.5786)"
       id="g654">
      <path
         d="m 692.0987,941.7224 h 5.7779 a 4.3334,4.3334 0 0 1 4.3334,4.3334 v 31.7782 a 4.3334,4.3334 0 0 1 -4.3334,4.3334 h -5.7779 a 4.3334,4.3334 0 0 1 -4.3334,-4.3334 v -31.7782 a 4.3334,4.3334 0 0 1 4.3334,-4.3334 z"
         id="path656"
         inkscape:connector-curvature="0"
         style="fill:#ffffff;stroke:#000000;stroke-width:3.80920005;stroke-linecap:round;stroke-linejoin:round" />
      <path
         d="m 802.1669,941.7224 h 5.7779 a 4.3334,4.3334 0 0 1 4.3333,4.3334 v 31.7782 a 4.3334,4.3334 0 0 1 -4.3333,4.3334 h -5.7779 a 4.3334,4.3334 0 0 1 -4.3334,-4.3334 v -31.7782 a 4.3334,4.3334 0 0 1 4.3334,-4.3334 z"
         id="path658"
         inkscape:connector-curvature="0"
         style="fill:#ffffff;stroke:#000000;stroke-width:3.80920005;stroke-linecap:round;stroke-linejoin:round" />
      <path
         d="m 777.8999,929.0111 h 5.7778 a 4.3334,4.3334 0 0 1 4.3334,4.3334 v 31.7782 a 4.3334,4.3334 0 0 1 -4.3334,4.3334 h -5.7778 a 4.3334,4.3334 0 0 1 -4.3334,-4.3334 v -31.7782 a 4.3334,4.3334 0 0 1 4.3334,-4.3334 z"
         id="path660"
         inkscape:connector-curvature="0"
         style="fill:#ffffff;stroke:#000000;stroke-width:3.80920005;stroke-linecap:round;stroke-linejoin:round" />
      <path
         d="m 665.2316,925.5444 h 5.7778 a 4.3334,4.3334 0 0 1 4.3334,4.3334 v 31.7782 a 4.3334,4.3334 0 0 1 -4.3334,4.3334 h -5.7778 a 4.3334,4.3334 0 0 1 -4.3334,-4.3334 v -31.7782 a 4.3334,4.3334 0 0 1 4.3334,-4.3334 z"
         id="path662"
         inkscape:connector-curvature="0"
         style="fill:#ffffff;stroke:#000000;stroke-width:3.80920005;stroke-linecap:round;stroke-linejoin:round" />
      <path
         d="m -830.0239,1744.2754 h 130.7031 a 13.6885,13.6885 0 0 1 13.6885,13.6885 v 23.0622 a 13.6885,13.6885 0 0 1 -13.6885,13.6886 h -130.7031 a 13.6885,13.6885 0 0 1 -13.6885,-13.6886 v -23.0622 a 13.6885,13.6885 0 0 1 13.6885,-13.6885 z"
         transform="matrix(1,0,0.84988,0.52697,0,0)"
         id="path664"
         inkscape:connector-curvature="0"
         style="fill:#ffffff;stroke:#000000;stroke-width:2.06080008;stroke-linecap:round;stroke-linejoin:round" />
      <path
         d="m -824.079,1736.6005 h 130.7031 a 13.6885,13.6885 0 0 1 13.6885,13.6885 v 23.0622 a 13.6885,13.6885 0 0 1 -13.6885,13.6886 H -824.079 a 13.6885,13.6885 0 0 1 -13.6885,-13.6886 v -23.0622 a 13.6885,13.6885 0 0 1 13.6885,-13.6885 z"
         transform="matrix(1,0,0.84988,0.52697,0,0)"
         id="path666"
         inkscape:connector-curvature="0"
         style="fill:#ffffff;stroke:#000000;stroke-width:2.06080008;stroke-linecap:round;stroke-linejoin:round" />
    </g>
    <path
       d="m 350.51417,98.030722 69.29109,56.389798 a 23.17646,5.8650945 53.966774 0 1 19.4271,26.3889 l 16.60745,40.22479 a 23.17646,5.8650945 53.966774 0 1 -6.27154,5.4751 l -69.2911,-56.38977 a 23.17646,5.8650945 53.966774 0 1 -19.42709,-26.3889 l -16.60746,-40.22481 a 23.17646,5.8650945 53.966774 0 1 6.27155,-5.475108 z"
       id="path668"
       inkscape:connector-curvature="0"
       style="fill:#ffffff;stroke:#000000;stroke-width:4.71884918;stroke-linecap:round;stroke-linejoin:round" />
    <path
       d="m 355.77297,93.104792 69.2911,56.389788 a 23.17646,5.8650945 53.966774 0 1 19.42709,26.3889 l 16.60746,40.22482 a 23.17646,5.8650945 53.966774 0 1 -6.27154,5.4751 l -69.29109,-56.3898 a 23.17646,5.8650945 53.966774 0 1 -19.4271,-26.3889 L 349.50143,98.579892 a 23.17646,5.8650945 53.966774 0 1 6.27154,-5.4751 z"
       id="path670"
       inkscape:connector-curvature="0"
       style="fill:#ffffff;stroke:#000000;stroke-width:4.71884918;stroke-linecap:round;stroke-linejoin:round" />
    <path
       d="m 460.92563,127.44122 67.15293,54.64973 a 14.275809,22.623502 85.841002 0 1 -4.75684,20.20311 l -45.88065,23.44444 a 14.275809,22.623502 85.841002 0 1 -31.58748,-1.63167 l -67.15291,-54.64971 a 14.275809,22.623502 85.841002 0 1 4.75687,-20.20334 l 45.88066,-23.44442 a 14.275809,22.623502 85.841002 0 1 31.58742,1.63186 z"
       id="path672"
       inkscape:connector-curvature="0"
       style="fill:#ffffff;stroke:#000000;stroke-width:7.08074236;stroke-linecap:round;stroke-linejoin:round" />
    <text
       font-size="7.583"
       transform="matrix(0.70003994,0.56969944,-1.10389,0.5301333,0,0)"
       x="424.01416"
       y="-126.8524"
       id="text674"
       style="font-size:14.7429657px;font-family:Bitstream Vera Sans">
      <tspan
         x="424.01416"
         y="-126.8524"
         id="tspan676">MSI</tspan>
    </text>
    <path
       d="m 464.85995,188.30834 c -10.1971,4.46056 -23.79936,3.73451 -30.38121,-1.62189 -6.58186,-5.35639 -3.65115,-13.31454 6.5463,-17.77526 10.19711,-4.46056 23.79936,-3.73452 30.38122,1.62189 6.58185,5.35639 3.65113,13.31453 -6.54631,17.77526 z"
       id="path678"
       inkscape:connector-curvature="0"
       style="fill:none;stroke:#000000;stroke-width:3.08165264;stroke-linecap:round;stroke-linejoin:round" />
    <path
       d="m 312.31498,189.93884 36.0425,-50.01814"
       id="path830"
       inkscape:connector-curvature="0"
       style="fill:none;stroke:#000000;stroke-width:2.05957174" />
    <path
       d="m 352.03526,209.79888 20.59571,-26.48033"
       id="path832"
       inkscape:connector-curvature="0"
       style="fill:none;stroke:#000000;stroke-width:2.05957174" />
    <path
       d="m 382.92883,223.77471 22.80234,-17.6534"
       id="path834"
       inkscape:connector-curvature="0"
       style="fill:none;stroke:#000000;stroke-width:2.05957174" />
    <path
       d="m 289.51264,282.61956 11.76901,-23.53802"
       id="path836"
       inkscape:connector-curvature="0"
       style="fill:none;stroke:#000000;stroke-width:2.05957174" />
    <path
       d="m 317.46391,278.20611 12.50448,-17.65342"
       id="path838"
       inkscape:connector-curvature="0"
       style="fill:none;stroke:#000000;stroke-width:2.05957174" />
    <path
       d="m 357.91987,278.20611 8.82671,-17.65342"
       id="path840"
       inkscape:connector-curvature="0"
       style="fill:none;stroke:#000000;stroke-width:2.05957174" />
    <path
       d="m 316.73338,205.31766 c -4.61385,2.51494 23.92543,34.32791 23.92543,34.32791 l 99.86306,10.40249 c 0,0 -11.78096,-21.81046 -21.84505,-28.08659 -4.59696,-2.86672 -95.67431,-20.06105 -101.94365,-16.64381 z"
       id="path842"
       inkscape:connector-curvature="0"
       style="stroke:#000000;stroke-width:2.05957174" />
  </g>
</svg>
